<mxfile host="app.diagrams.net" agent="Mozilla/5.0 (Windows NT 10.0; Win64; x64) AppleWebKit/537.36 (KHTML, like Gecko) Chrome/132.0.0.0 Safari/537.36" version="26.0.11">
  <diagram name="Page-1" id="UtVa5aQBGwGUnUf4FVHv">
    <mxGraphModel dx="1434" dy="772" grid="1" gridSize="10" guides="1" tooltips="1" connect="1" arrows="1" fold="1" page="1" pageScale="1" pageWidth="827" pageHeight="1169" math="0" shadow="0">
      <root>
        <mxCell id="0" />
        <mxCell id="1" parent="0" />
        <mxCell id="_oQxroU7YZvosERaNOVH-1" value="" style="rounded=0;whiteSpace=wrap;html=1;fontColor=default;fillColor=none;" vertex="1" parent="1">
          <mxGeometry x="80" y="270" width="120" height="20" as="geometry" />
        </mxCell>
        <mxCell id="_oQxroU7YZvosERaNOVH-2" value="..." style="rounded=0;whiteSpace=wrap;html=1;fillColor=none;" vertex="1" parent="1">
          <mxGeometry x="80" y="70" width="120" height="20" as="geometry" />
        </mxCell>
        <mxCell id="_oQxroU7YZvosERaNOVH-3" value="value" style="rounded=0;whiteSpace=wrap;html=1;fillColor=none;" vertex="1" parent="1">
          <mxGeometry x="80" y="50" width="120" height="20" as="geometry" />
        </mxCell>
        <mxCell id="_oQxroU7YZvosERaNOVH-4" value="value" style="rounded=0;whiteSpace=wrap;html=1;fillColor=none;" vertex="1" parent="1">
          <mxGeometry x="80" y="30" width="120" height="20" as="geometry" />
        </mxCell>
        <mxCell id="_oQxroU7YZvosERaNOVH-5" value="" style="endArrow=none;html=1;rounded=0;strokeWidth=3;" edge="1" parent="1">
          <mxGeometry width="50" height="50" relative="1" as="geometry">
            <mxPoint x="53.75" y="30" as="sourcePoint" />
            <mxPoint x="226.25" y="30" as="targetPoint" />
          </mxGeometry>
        </mxCell>
        <mxCell id="_oQxroU7YZvosERaNOVH-6" value="stack" style="edgeLabel;html=1;align=center;verticalAlign=middle;resizable=0;points=[];labelBackgroundColor=none;" vertex="1" connectable="0" parent="_oQxroU7YZvosERaNOVH-5">
          <mxGeometry x="0.0017" y="-1" relative="1" as="geometry">
            <mxPoint y="-10" as="offset" />
          </mxGeometry>
        </mxCell>
        <mxCell id="_oQxroU7YZvosERaNOVH-7" value="" style="endArrow=classic;html=1;rounded=0;entryX=0;entryY=0.5;entryDx=0;entryDy=0;labelBackgroundColor=none;" edge="1" parent="1" target="_oQxroU7YZvosERaNOVH-1">
          <mxGeometry width="50" height="50" relative="1" as="geometry">
            <mxPoint x="50" y="280" as="sourcePoint" />
            <mxPoint x="80" y="319.76" as="targetPoint" />
          </mxGeometry>
        </mxCell>
        <mxCell id="_oQxroU7YZvosERaNOVH-8" value="SP" style="edgeLabel;html=1;align=center;verticalAlign=middle;resizable=0;points=[];" vertex="1" connectable="0" parent="_oQxroU7YZvosERaNOVH-7">
          <mxGeometry x="-0.5943" y="2" relative="1" as="geometry">
            <mxPoint x="-16" y="2" as="offset" />
          </mxGeometry>
        </mxCell>
        <mxCell id="_oQxroU7YZvosERaNOVH-9" value="value" style="rounded=0;whiteSpace=wrap;html=1;fillColor=none;" vertex="1" parent="1">
          <mxGeometry x="80" y="90" width="120" height="20" as="geometry" />
        </mxCell>
        <mxCell id="_oQxroU7YZvosERaNOVH-10" value="working stack&lt;br&gt;of the caller" style="shape=curlyBracket;rounded=1;flipH=1;labelPosition=right;verticalLabelPosition=middle;align=left;verticalAlign=middle;html=1;" vertex="1" parent="1">
          <mxGeometry x="210" y="50" width="20" height="40" as="geometry" />
        </mxCell>
        <mxCell id="_oQxroU7YZvosERaNOVH-11" value="..." style="rounded=0;whiteSpace=wrap;html=1;fillColor=none;" vertex="1" parent="1">
          <mxGeometry x="80" y="110" width="120" height="20" as="geometry" />
        </mxCell>
        <mxCell id="_oQxroU7YZvosERaNOVH-12" value="arguments (nArgs)" style="shape=curlyBracket;rounded=1;flipH=1;labelPosition=right;verticalLabelPosition=middle;align=left;verticalAlign=middle;html=1;" vertex="1" parent="1">
          <mxGeometry x="210" y="90" width="20" height="40" as="geometry" />
        </mxCell>
        <mxCell id="_oQxroU7YZvosERaNOVH-13" value="return address" style="rounded=0;whiteSpace=wrap;html=1;fillColor=none;" vertex="1" parent="1">
          <mxGeometry x="80" y="130" width="120" height="20" as="geometry" />
        </mxCell>
        <mxCell id="_oQxroU7YZvosERaNOVH-14" value="saved LCL" style="rounded=0;whiteSpace=wrap;html=1;fillColor=none;" vertex="1" parent="1">
          <mxGeometry x="80" y="150" width="120" height="20" as="geometry" />
        </mxCell>
        <mxCell id="_oQxroU7YZvosERaNOVH-15" value="saved ARG" style="rounded=0;whiteSpace=wrap;html=1;fillColor=none;" vertex="1" parent="1">
          <mxGeometry x="80" y="170" width="120" height="20" as="geometry" />
        </mxCell>
        <mxCell id="_oQxroU7YZvosERaNOVH-16" value="saved THIS" style="rounded=0;whiteSpace=wrap;html=1;fillColor=none;" vertex="1" parent="1">
          <mxGeometry x="80" y="190" width="120" height="20" as="geometry" />
        </mxCell>
        <mxCell id="_oQxroU7YZvosERaNOVH-17" value="saved THAT" style="rounded=0;whiteSpace=wrap;html=1;fillColor=none;" vertex="1" parent="1">
          <mxGeometry x="80" y="210" width="120" height="20" as="geometry" />
        </mxCell>
        <mxCell id="_oQxroU7YZvosERaNOVH-18" value="" style="endArrow=classic;html=1;rounded=0;entryX=0;entryY=0.5;entryDx=0;entryDy=0;labelBackgroundColor=none;" edge="1" parent="1">
          <mxGeometry width="50" height="50" relative="1" as="geometry">
            <mxPoint x="50" y="99.75999999999999" as="sourcePoint" />
            <mxPoint x="80" y="99.75999999999999" as="targetPoint" />
          </mxGeometry>
        </mxCell>
        <mxCell id="_oQxroU7YZvosERaNOVH-19" value="ARG" style="edgeLabel;html=1;align=center;verticalAlign=middle;resizable=0;points=[];" vertex="1" connectable="0" parent="_oQxroU7YZvosERaNOVH-18">
          <mxGeometry x="-0.5943" y="2" relative="1" as="geometry">
            <mxPoint x="-16" y="2" as="offset" />
          </mxGeometry>
        </mxCell>
        <mxCell id="_oQxroU7YZvosERaNOVH-20" value="saved frame&lt;div&gt;of the caller&lt;/div&gt;" style="shape=curlyBracket;rounded=1;flipH=1;labelPosition=right;verticalLabelPosition=middle;align=left;verticalAlign=middle;html=1;" vertex="1" parent="1">
          <mxGeometry x="210" y="130" width="20" height="100" as="geometry" />
        </mxCell>
        <mxCell id="_oQxroU7YZvosERaNOVH-21" value="0" style="rounded=0;whiteSpace=wrap;html=1;fillColor=none;" vertex="1" parent="1">
          <mxGeometry x="80" y="230" width="120" height="20" as="geometry" />
        </mxCell>
        <mxCell id="_oQxroU7YZvosERaNOVH-22" value="..." style="rounded=0;whiteSpace=wrap;html=1;fillColor=none;" vertex="1" parent="1">
          <mxGeometry x="80" y="250" width="120" height="20" as="geometry" />
        </mxCell>
        <mxCell id="_oQxroU7YZvosERaNOVH-23" value="" style="endArrow=classic;html=1;rounded=0;entryX=0;entryY=0.5;entryDx=0;entryDy=0;labelBackgroundColor=none;" edge="1" parent="1">
          <mxGeometry width="50" height="50" relative="1" as="geometry">
            <mxPoint x="50" y="239.76" as="sourcePoint" />
            <mxPoint x="80" y="239.76" as="targetPoint" />
          </mxGeometry>
        </mxCell>
        <mxCell id="_oQxroU7YZvosERaNOVH-24" value="LCL" style="edgeLabel;html=1;align=center;verticalAlign=middle;resizable=0;points=[];" vertex="1" connectable="0" parent="_oQxroU7YZvosERaNOVH-23">
          <mxGeometry x="-0.5943" y="2" relative="1" as="geometry">
            <mxPoint x="-16" y="2" as="offset" />
          </mxGeometry>
        </mxCell>
        <mxCell id="_oQxroU7YZvosERaNOVH-25" value="local variables (nVars)" style="shape=curlyBracket;rounded=1;flipH=1;labelPosition=right;verticalLabelPosition=middle;align=left;verticalAlign=middle;html=1;" vertex="1" parent="1">
          <mxGeometry x="210" y="230" width="20" height="40" as="geometry" />
        </mxCell>
      </root>
    </mxGraphModel>
  </diagram>
</mxfile>
